# xmcd
# Track frame offsets:
# 150
# 20492
# 47998
# 67180
# 93435
# 110152
# 132927
# 156915
# 180701
# 202295
#
# Disc length: 3019 seconds
# Revision: 0
# Processed by: cddbd v1.5.2PL0 Copyright (c) Steve Scherf et al.
# Submitted via: VisiTrax 2.10.3.257 - For more info visit www.synapsa.com
#
DISCID=9a0bc90a
DTITLE=Gauthier, Mary - Between Daylight And Dark
DYEAR=2007
DGENRE=Alternative
TTITLE0=Snakebit
TTITLE1=Can't Find The Way
TTITLE2=Between The Daylight And The Dark
TTITLE3=Last Of The Hobo Kings
TTITLE4=Before You Leave
TTITLE5=Please
TTITLE6=Same Road
TTITLE7=I Aint Leaving
TTITLE8=Soft Place To Land
TTITLE9=Thanksgiving
EXTD=
EXTT0=
EXTT1=
EXTT2=
EXTT3=
EXTT4=
EXTT5=
EXTT6=
EXTT7=
EXTT8=
EXTT9=
PLAYORDER=
